<svg width="1440" height="300" viewBox="0 0 1440 300" fill="none" xmlns="http://www.w3.org/2000/svg">
<g clip-path="url(#clip0_1_2)">
<rect width="1440" height="300" fill="#CB4561"/>
<path d="M870 300L209.601 0H-60V300H870Z" fill="#D93355"/>
<path d="M10.5571 53C-118.578 53 -168 300 -168 300H517C350.134 218.498 139.692 53 10.5571 53Z" fill="#DA536F"/>
<path d="M0 299.5V94C68.1981 226.301 145.66 265.939 326 299.5H0Z" fill="#FECACA"/>
<path d="M1522.25 271C1537.5 134.5 1448.18 65 1448.18 65C1448.18 65 1385.87 155 1242.08 190C1098.3 225 836 271 836 271H1522.25Z" fill="#FECACA"/>
<path d="M1026.49 162C858.175 162 533 317 533 317H1457C1457 317 1194.8 162 1026.49 162Z" fill="#FCA5A5"/>
<path d="M171.482 130.364C88.5296 130.364 52.5136 277.192 0 352H1673C1673 352 1297.97 -16 1095.82 -16C893.661 -16 685.93 340.848 521.418 340.848C356.907 340.848 254.435 130.364 171.482 130.364Z" fill="#E65372"/>
<path d="M1120 137C1007.5 137 952 293 940 305C940 305 1420.5 328.5 1420.5 311C1420.5 293.5 1232.5 137 1120 137Z" fill="#CB4561"/>
<path d="M876 247C727.448 247 683 300 683 300H1392.5C998 244 1024.55 247 876 247Z" fill="#F0889E"/>
</g>
<defs>
<clipPath id="clip0_1_2">
<rect width="1440" height="300" fill="white"/>
</clipPath>
</defs>
</svg>
